<svg xmlns="http://www.w3.org/2000/svg" width="68.3" height="68.3" viewBox="0 0 68.3 68.3"><defs><style>.a{fill:#0d274f;}</style></defs><path class="a" d="M34.15,0A34.15,34.15,0,1,0,68.29,34.143,34.15,34.15,0,0,0,34.15,0ZM50.42,15.67,53,19.75a1.12,1.12,0,0,0,1,.54,1.05,1.05,0,0,0,.66-.22,1.23,1.23,0,0,0,.47-.76,1.28,1.28,0,0,0-.17-.88L50.13,10.8a1.14,1.14,0,0,0-1-.54,1.11,1.11,0,0,0-.94.56l-4.5,7.58a1.29,1.29,0,0,0,.23,1.6,1.09,1.09,0,0,0,.71.26,1.11,1.11,0,0,0,1-.56l2.54-4.25V62.94a31.549,31.549,0,0,1-3.06,1.3c-.33-1.55-.67-3-1-4.41-.49-2-1-4-1.58-5.9s-1.15-3.77-1.76-5.56-1.28-3.54-2-5.21c-.28-.7-.57-1.4-.87-2.07a60.78,60.78,0,0,0-9.32-15.6l-.75-.86,4.66,1.46a1.34,1.34,0,0,0,.35.05,1.164,1.164,0,0,0,1.08-1.7,1.12,1.12,0,0,0-.69-.57l-8.27-2.59a1.17,1.17,0,0,0-1.08.2,1.2,1.2,0,0,0-.43,1L24.19,31a1.12,1.12,0,0,0,.41.79,1.14,1.14,0,0,0,.85.26,1.2,1.2,0,0,0,.79-.41,1.15,1.15,0,0,0,.26-.85l-.42-4.63.66.76a57.109,57.109,0,0,1,8.58,14.12c.71,1.58,1.4,3.25,2,5s1.29,3.51,1.88,5.34,1.16,3.74,1.69,5.69,1,4,1.5,6c.14.59.27,1.21.42,1.88-1,.28-2,.5-2.93.68-.69-1.4-1.41-2.74-2.14-4a51.868,51.868,0,0,0-3-4.57,43.642,43.642,0,0,0-3.4-4c-.25-.27-.51-.53-.79-.82l-.9-.86v-.05A34.76,34.76,0,0,0,15.82,43.2l-1.14-.34L19,41.92a1.14,1.14,0,0,0,.88-.81,1.12,1.12,0,0,0-.19-1,1.14,1.14,0,0,0-1.15-.43l-8.25,1.78a1.14,1.14,0,0,0-.7,1.77l4.75,6.84a1.13,1.13,0,0,0,.94.49,1.139,1.139,0,0,0,.94-1.79L13.62,45l.79.21c.71.19,1.44.41,2.16.67l1.2.46h.13l.47.2a34.23,34.23,0,0,1,9,5.86l.09.09.07.06.64.59.21.21.13.12L29,54l.37.38.23.24.35.36.34.38.23.26c.12.12.23.25.34.38l.33.38.23.27.33.4.31.4.22.27c.12.14.23.29.34.43l.28.37.23.31.33.45c.1.14.19.28.29.41l.2.3.33.47q.14.2.27.42l.2.31.31.48.27.43.2.33.3.49.26.44.2.35c.1.16.19.33.28.5l.24.43L37,65l.27.51c.08.15.16.3.24.47h0a32,32,0,1,1,19.27-9.19,32.77,32.77,0,0,1-6.36,4.94Z" transform="translate(0.01 0)"/></svg>