<svg xmlns="http://www.w3.org/2000/svg" width="28.831" height="28.833" viewBox="0 0 28.831 28.833"><defs><style>.a{fill:#b1cee9;}</style></defs><path class="a" d="M24.221,28.834H4.613A4.62,4.62,0,0,1,0,24.221V4.613A4.618,4.618,0,0,1,4.613,0H24.218a4.616,4.616,0,0,1,4.613,4.613V24.218A4.616,4.616,0,0,1,24.221,28.834ZM4.613,2.308A2.311,2.311,0,0,0,2.3,4.615V24.221a2.311,2.311,0,0,0,2.308,2.308H24.218a2.311,2.311,0,0,0,2.308-2.308V4.613A2.311,2.311,0,0,0,24.218,2.3H4.613ZM17.922,15.4l.436-2.836H15.637v-1.84a1.418,1.418,0,0,1,1.285-1.539,1.609,1.609,0,0,1,.312.006H18.47V6.776a14.723,14.723,0,0,0-2.2-.194,3.464,3.464,0,0,0-3.711,3.194,3.712,3.712,0,0,0,.009.621v2.16h-2.5v2.836H12.57v6.857h3.067V15.4Z"/></svg>