<svg xmlns="http://www.w3.org/2000/svg" width="22.993" height="22.993" viewBox="0 0 22.993 22.993"><defs><style>.a{fill:#0d274f;}</style></defs><path class="a" d="M3.679,0H19.315a3.679,3.679,0,0,1,3.679,3.679V19.315a3.679,3.679,0,0,1-3.679,3.679H3.679A3.675,3.675,0,0,1,0,19.317V3.679A3.679,3.679,0,0,1,3.679,0Zm0,1.84a1.843,1.843,0,0,0-1.84,1.84V19.317a1.843,1.843,0,0,0,1.84,1.84H19.315a1.843,1.843,0,0,0,1.84-1.84V3.679a1.843,1.843,0,0,0-1.84-1.84l-15.636,0Z" transform="translate(0 0)"/><path class="a" d="M12.635,6.548a5.575,5.575,0,1,0,5.574,5.574A5.574,5.574,0,0,0,12.635,6.548Zm0,9.193a3.618,3.618,0,1,1,3.618-3.618A3.618,3.618,0,0,1,12.635,15.741ZM18.43,5.026a1.3,1.3,0,1,0,1.3,1.3A1.3,1.3,0,0,0,18.43,5.026Z" transform="translate(-1.483 -0.295)"/></svg>