<svg xmlns="http://www.w3.org/2000/svg" width="29.026" height="29.026" viewBox="0 0 29.026 29.026"><defs><style>.a{fill:#f4ad2f;}</style></defs><path class="a" d="M4.644,0H24.382a4.644,4.644,0,0,1,4.644,4.644V24.382a4.644,4.644,0,0,1-4.644,4.644H4.644A4.639,4.639,0,0,1,0,24.385V4.644A4.644,4.644,0,0,1,4.644,0Zm0,2.323A2.326,2.326,0,0,0,2.32,4.647V24.385a2.326,2.326,0,0,0,2.323,2.323H24.382a2.326,2.326,0,0,0,2.323-2.323V4.644A2.326,2.326,0,0,0,24.382,2.32l-19.738,0Z"/><path class="a" d="M14.1,6.947a7.037,7.037,0,1,0,7.037,7.037A7.037,7.037,0,0,0,14.1,6.947Zm0,11.6a4.568,4.568,0,1,1,4.568-4.568A4.567,4.567,0,0,1,14.1,18.552ZM21.413,5.026A1.644,1.644,0,1,0,23.056,6.67,1.645,1.645,0,0,0,21.413,5.026Z" transform="translate(-0.019 0.947)"/></svg>