<svg xmlns="http://www.w3.org/2000/svg" width="40.026" height="40.026" viewBox="0 0 40.026 40.026"><defs><style>.a{fill:#0d274f;}.b{fill:none;stroke:#fff;stroke-linecap:round;stroke-linejoin:round;stroke-width:1.5px;}</style></defs><g transform="translate(-830.5 -869.563)"><path class="a" d="M6.4,0H33.622a6.4,6.4,0,0,1,6.4,6.4V33.622a6.4,6.4,0,0,1-6.4,6.4H6.4a6.4,6.4,0,0,1-6.4-6.4V6.4A6.4,6.4,0,0,1,6.4,0Zm0,3.2a3.208,3.208,0,0,0-3.2,3.2V33.626a3.208,3.208,0,0,0,3.2,3.2H33.622a3.208,3.208,0,0,0,3.2-3.2V6.4a3.208,3.208,0,0,0-3.2-3.2Z" transform="translate(830.5 869.563)"/><rect class="a" width="23" height="17" rx="1" transform="translate(839 881.667)"/><path class="b" d="M14822.324,667.288l7.4,6.425,7.57-6.425" transform="translate(-13979.298 219.075)"/></g></svg>