<svg width="32" height="32" xmlns="http://www.w3.org/2000/svg">

 <title/>
 <g>
  <title>background</title>
  <rect fill="none" id="canvas_background" height="402" width="582" y="-1" x="-1"/>
 </g>
 <g>
  <title>Layer 1</title>
  <path stroke="null" fill="#0d274f" id="svg_1" d="m28,10l-24,0a1,1.440247 0 0 1 0,-2.880494l24,0a1,1.440247 0 0 1 0,2.880494z"/>
  <path stroke="#04270d" fill="#0d274f" stroke-opacity="0" id="svg_2" d="m27.937108,17.062892l-24,0a1,1.50314 0 0 1 0,-3.006279l24,0a1,1.50314 0 0 1 0,3.006279z"/>
  <path stroke="null" fill="#0d274f" id="svg_3" d="m28,24l-24,0a1,1.50314 0 0 1 0,-3.006279l24,0a1,1.50314 0 0 1 0,3.006279z"/>
 </g>
</svg>